<?xml version="1.0" standalone="no"?>
<!DOCTYPE svg PUBLIC "-//W3C//DTD SVG 20010904//EN"
 "http://www.w3.org/TR/2001/REC-SVG-20010904/DTD/svg10.dtd">
<svg version="1.0" xmlns="http://www.w3.org/2000/svg"
 width="700.000000pt" height="700.000000pt" viewBox="0 0 700.000000 700.000000"
 preserveAspectRatio="xMidYMid meet">
<metadata>
Created by potrace 1.14, written by Peter Selinger 2001-2017
</metadata>
<g transform="translate(0.000000,700.000000) scale(0.100000,-0.100000)"
fill="#000000" stroke="none">
<path d="M5728 6697 c-25 -8 -70 -24 -98 -38 l-51 -24 6 -75 c4 -41 8 -88 10
-105 2 -16 7 -66 10 -110 4 -44 8 -91 11 -105 8 -51 17 -292 18 -465 0 -245
-12 -440 -39 -615 -8 -52 -17 -111 -19 -130 -8 -61 -55 -279 -81 -372 -3 -10
-7 -26 -9 -35 -70 -276 -226 -662 -411 -1021 l-74 -142 52 -40 52 -39 43 47
c56 61 212 267 212 280 0 6 3 12 8 14 8 3 76 105 135 204 99 165 212 391 293
589 67 163 188 528 208 625 3 14 19 81 35 150 17 69 32 137 35 153 3 15 10 55
16 90 7 34 14 76 16 92 2 17 6 41 8 55 5 22 13 85 21 160 2 14 6 48 9 75 17
157 23 435 11 580 -8 97 -25 119 -131 171 -61 30 -83 36 -160 40 -56 2 -106
-1 -136 -9z"/>
<path d="M4508 6034 c-95 -15 -134 -27 -223 -71 -127 -63 -249 -167 -365 -313
-73 -92 -178 -249 -230 -345 -18 -33 -36 -64 -40 -70 -11 -14 -200 -391 -245
-490 -21 -44 -62 -134 -92 -200 -30 -66 -59 -125 -65 -132 -6 -7 -8 -13 -5
-13 3 0 -7 -26 -22 -57 -15 -32 -61 -130 -101 -218 -89 -192 -301 -618 -366
-736 -26 -46 -55 -97 -64 -114 -79 -151 -276 -454 -419 -645 -200 -269 -451
-531 -691 -721 -373 -297 -779 -494 -1252 -610 -76 -19 -138 -36 -138 -39 0
-3 69 -46 153 -96 423 -253 847 -405 1390 -499 90 -16 111 -19 212 -30 63 -8
73 -9 225 -21 124 -11 596 -11 730 -1 245 19 289 23 480 53 52 8 111 17 130
20 79 12 375 78 515 116 154 41 515 159 563 184 15 7 30 14 35 14 4 0 62 23
130 52 183 78 396 185 599 303 75 43 202 126 300 196 665 477 1072 1081 1145
1699 9 82 10 336 0 415 -47 393 -217 792 -495 1164 -58 77 -79 104 -97 125 -6
6 -26 31 -44 54 l-34 44 -42 -126 -42 -127 18 -92 c10 -51 21 -119 24 -152 4
-33 9 -69 11 -80 2 -11 6 -54 10 -95 3 -41 7 -95 9 -120 6 -56 5 -345 0 -420
-5 -71 -14 -176 -20 -220 -2 -19 -7 -57 -11 -84 -3 -27 -7 -56 -9 -65 -1 -9
-10 -56 -20 -106 -28 -152 -104 -445 -115 -445 -3 0 -5 96 -6 213 -1 242 -9
403 -29 587 -14 123 -16 138 -40 280 -9 52 -18 115 -22 140 -12 90 -15 88 -87
-52 -76 -146 -170 -308 -222 -379 -19 -26 -34 -49 -34 -52 0 -3 -29 -47 -64
-98 l-63 -94 -7 -215 c-3 -118 -8 -235 -11 -260 -21 -193 -29 -246 -45 -330
-11 -52 -21 -106 -24 -120 -15 -78 -61 -251 -90 -340 -13 -43 -14 -38 -16 130
-1 96 -3 200 -5 230 -8 148 -15 268 -19 300 -3 19 -7 61 -10 93 -12 115 -18
172 -20 174 0 1 -39 -43 -86 -97 -144 -166 -397 -412 -567 -550 -49 -40 -51
-44 -63 -118 -14 -80 -15 -84 -25 -142 -12 -62 -74 -313 -94 -375 l-19 -60 -2
190 c-3 321 -4 343 -15 337 -5 -3 -73 -47 -150 -98 -249 -163 -475 -285 -745
-402 -161 -70 -476 -183 -454 -163 5 5 93 65 196 134 211 141 374 262 558 413
130 107 141 116 254 217 38 34 78 70 89 79 23 21 24 21 -88 43 -44 8 -91 18
-105 20 -79 17 -198 37 -218 37 -32 1 -19 10 20 14 18 2 53 6 78 9 25 3 137 7
249 10 136 4 209 10 220 18 29 22 218 229 316 348 101 121 350 477 341 486 -4
5 -264 49 -337 58 -30 3 -67 8 -83 11 -16 3 -54 7 -85 9 -31 2 -83 7 -116 10
-105 9 -207 14 -322 16 -62 1 -113 3 -113 4 0 4 164 53 245 74 89 22 217 47
291 56 27 4 60 8 73 10 98 16 494 24 564 11 24 -4 28 2 86 130 34 75 61 140
61 145 0 5 4 17 10 27 31 53 129 372 173 559 22 92 22 103 8 109 -26 10 -389
13 -476 3 -127 -14 -167 -19 -195 -24 -14 -3 -45 -7 -70 -11 -25 -3 -74 -12
-110 -20 -36 -8 -81 -17 -100 -20 -19 -3 -52 -10 -74 -15 -21 -6 -40 -8 -42
-6 -7 7 138 98 246 155 249 132 544 222 839 256 30 4 56 8 57 9 1 1 5 33 8 72
6 68 11 115 21 205 3 25 8 129 11 231 l7 187 -89 59 c-302 203 -561 283 -796
247z"/>
</g>
</svg>
