<?xml version="1.0" standalone="no"?>
<!DOCTYPE svg PUBLIC "-//W3C//DTD SVG 20010904//EN"
 "http://www.w3.org/TR/2001/REC-SVG-20010904/DTD/svg10.dtd">
<svg version="1.0" xmlns="http://www.w3.org/2000/svg"
 width="176.000000pt" height="176.000000pt" viewBox="0 0 176.000000 176.000000"
 preserveAspectRatio="xMidYMid meet">
<metadata>
Created by potrace 1.14, written by Peter Selinger 2001-2017
</metadata>
<g transform="translate(0.000000,176.000000) scale(0.100000,-0.100000)"
fill="#000000" stroke="none">
<path d="M803 1685 c-91 -20 -175 -69 -239 -137 -109 -118 -134 -205 -134
-470 l0 -178 -47 0 c-64 -1 -128 -31 -153 -72 -19 -31 -20 -50 -20 -328 0
-278 1 -297 20 -328 12 -19 38 -41 63 -52 40 -19 72 -20 612 -20 635 0 615 -2
662 69 23 33 23 39 23 330 0 276 -1 298 -20 328 -42 70 -29 68 -487 71 l-413
3 0 187 c0 209 7 238 71 299 110 104 295 75 365 -58 9 -19 20 -69 24 -112 9
-101 18 -111 113 -115 66 -4 74 -2 100 22 24 22 27 32 27 85 0 130 -40 237
-123 328 -119 130 -283 185 -444 148z"/>
</g>
</svg>
